<svg width="238" height="73" viewBox="0 0 238 73" fill="none" xmlns="http://www.w3.org/2000/svg">
<path d="M223.831 72.2031H238V28.3712H223.831V44.4694H210.459V28.3712H196.29V72.2031H210.459V55.6266H223.831V72.2031ZM56.1967 23.5895C54.9231 22.3144 54.9231 20.4017 56.1967 19.1266C57.4702 17.8515 59.5398 17.8515 60.6542 19.1266C61.7686 20.4017 61.9278 22.3144 60.6542 23.5895C59.3806 24.8646 57.311 24.8646 56.1967 23.5895ZM60.1766 44.31C65.5893 35.5437 67.4997 21.6769 67.4997 21.6769L65.4301 20.7205C65.1117 20.5611 65.1117 20.4017 65.2709 20.083L66.8629 18.1703C65.9077 16.2576 62.4053 13.0699 57.311 13.0699C54.2863 13.0699 51.5799 13.8668 49.192 15.4607C49.192 15.4607 45.6896 17.8515 40.7545 22.155C34.8642 27.2555 27.0635 34.9061 19.8997 44.7882C19.7405 45.107 19.8997 45.4258 20.2181 45.4258H29.4515C35.501 45.4258 43.3017 44.31 51.4207 35.7031C51.5799 35.5437 51.7391 35.5437 51.8983 35.5437C52.0575 35.7031 52.0575 35.8624 52.0575 36.0218C50.7839 39.2096 47.6 45.4258 41.7097 49.2511H49.5104C54.7639 49.2511 58.5846 46.8603 60.1766 44.31ZM52.2167 54.8297L58.2662 72.0437H75.4595C71.9572 61.3646 68.1365 51.4825 64.4749 42.3974C61.6094 48.6135 58.903 51.6419 52.2167 54.8297ZM0 72.2031H17.3525L23.2428 53.8734H6.36789C4.29833 59.2926 2.22876 65.3493 0 72.2031ZM23.402 32.8341L32.1579 25.6616C34.0682 20.5611 35.9786 15.4607 37.889 11.1572C38.8441 13.3886 39.7993 15.7795 40.7545 18.1703C45.5304 14.1856 48.5552 11.7948 52.5351 10.679C50.1472 5.41921 48.396 1.59389 47.6 0H28.1779C26.586 3.50655 20.3773 16.417 13.0542 33.7904H20.0589C21.4916 33.7904 22.606 33.631 23.402 32.8341ZM130.701 67.262L131.656 72.0437H143.118V28.3712H128.95V58.8144C127.676 60.2489 125.288 61.8428 123.06 61.8428C119.08 61.8428 117.01 59.6114 117.01 55.4672V28.3712H102.841V58.8144C101.568 60.2489 98.8615 61.8428 96.4736 61.8428C92.812 61.8428 90.7425 59.6114 90.7425 55.4672V28.3712H76.5739V57.3799C76.5739 67.8996 81.1906 73.1594 90.7425 73.1594C97.588 73.1594 101.727 70.6092 104.911 67.262C107.14 71.2467 111.12 73.1594 117.01 73.1594C123.856 73 127.676 70.6092 130.701 67.262ZM175.754 58.655C174.48 60.0895 172.411 61.6834 168.908 61.6834C165.088 61.6834 163.018 58.1769 163.018 51.3231C163.018 42.8755 165.247 38.7314 169.864 38.7314C172.57 38.7314 173.843 38.8908 175.754 39.369V58.655ZM163.973 73H164.451C170.819 73 175.117 70.7686 177.505 67.262L178.301 72.0437H189.922V30.1245C185.306 28.69 179.893 27.4148 170.023 27.4148C155.854 27.4148 148.213 36.0218 148.213 51.9607C148.213 66.6245 153.625 73 163.973 73Z" fill="#DC000F"/>
</svg>
